<?xml version="1.0" encoding="UTF-8" standalone="no"?>
<!DOCTYPE svg PUBLIC "-//W3C//DTD SVG 1.1//EN"
 "http://www.w3.org/Graphics/SVG/1.1/DTD/svg11.dtd">
<!-- Generated by graphviz version 11.0.0 (20240428.1522)
 -->
<!-- Title: G Pages: 1 -->
<svg width="608pt" height="476pt"
 viewBox="0.00 0.00 608.00 476.00" xmlns="http://www.w3.org/2000/svg" xmlns:xlink="http://www.w3.org/1999/xlink">
<g id="graph0" class="graph" transform="scale(1 1) rotate(0) translate(4 472)">
<title>G</title>
<polygon fill="white" stroke="none" points="-4,4 -4,-472 604,-472 604,4 -4,4"/>
<!-- Program_0 -->
<g id="node1" class="node">
<title>Program_0</title>
<ellipse fill="none" stroke="black" cx="245" cy="-450" rx="42.58" ry="18"/>
<text text-anchor="middle" x="245" y="-444.57" font-family="Times New Roman,serif" font-size="14.00">Program</text>
</g>
<!-- Entry Point_1 -->
<g id="node2" class="node">
<title>Entry Point_1</title>
<ellipse fill="none" stroke="black" cx="245" cy="-378" rx="52.56" ry="18"/>
<text text-anchor="middle" x="245" y="-372.57" font-family="Times New Roman,serif" font-size="14.00">Entry Point</text>
</g>
<!-- Program_0&#45;&gt;Entry Point_1 -->
<g id="edge1" class="edge">
<title>Program_0&#45;&gt;Entry Point_1</title>
<path fill="none" stroke="black" d="M245,-431.7C245,-424.41 245,-415.73 245,-407.54"/>
<polygon fill="black" stroke="black" points="248.5,-407.62 245,-397.62 241.5,-407.62 248.5,-407.62"/>
</g>
<!-- int_2 -->
<g id="node3" class="node">
<title>int_2</title>
<ellipse fill="none" stroke="red" cx="27" cy="-306" rx="27" ry="18"/>
<text text-anchor="middle" x="27" y="-300.57" font-family="Times New Roman,serif" font-size="14.00" fill="red">int</text>
</g>
<!-- Entry Point_1&#45;&gt;int_2 -->
<g id="edge2" class="edge">
<title>Entry Point_1&#45;&gt;int_2</title>
<path fill="none" stroke="black" d="M203.19,-366.83C165.9,-357.29 110.08,-341.84 63,-324 61.46,-323.42 59.9,-322.8 58.34,-322.15"/>
<polygon fill="black" stroke="black" points="60.03,-319.07 49.47,-318.24 57.21,-325.48 60.03,-319.07"/>
</g>
<!-- main_3 -->
<g id="node4" class="node">
<title>main_3</title>
<ellipse fill="none" stroke="red" cx="100" cy="-306" rx="28.11" ry="18"/>
<text text-anchor="middle" x="100" y="-300.57" font-family="Times New Roman,serif" font-size="14.00" fill="red">main</text>
</g>
<!-- Entry Point_1&#45;&gt;main_3 -->
<g id="edge3" class="edge">
<title>Entry Point_1&#45;&gt;main_3</title>
<path fill="none" stroke="black" d="M215.66,-362.83C191.33,-351.09 156.8,-334.42 131.82,-322.36"/>
<polygon fill="black" stroke="black" points="133.64,-319.35 123.11,-318.16 130.59,-325.66 133.64,-319.35"/>
</g>
<!-- (_4 -->
<g id="node5" class="node">
<title>(_4</title>
<ellipse fill="none" stroke="red" cx="173" cy="-306" rx="27" ry="18"/>
<text text-anchor="middle" x="173" y="-300.57" font-family="Times New Roman,serif" font-size="14.00" fill="red">(</text>
</g>
<!-- Entry Point_1&#45;&gt;(_4 -->
<g id="edge4" class="edge">
<title>Entry Point_1&#45;&gt;(_4</title>
<path fill="none" stroke="black" d="M228.3,-360.76C218.6,-351.33 206.24,-339.32 195.67,-329.04"/>
<polygon fill="black" stroke="black" points="198.35,-326.77 188.74,-322.3 193.47,-331.79 198.35,-326.77"/>
</g>
<!-- )_5 -->
<g id="node6" class="node">
<title>)_5</title>
<ellipse fill="none" stroke="red" cx="245" cy="-306" rx="27" ry="18"/>
<text text-anchor="middle" x="245" y="-300.57" font-family="Times New Roman,serif" font-size="14.00" fill="red">)</text>
</g>
<!-- Entry Point_1&#45;&gt;)_5 -->
<g id="edge5" class="edge">
<title>Entry Point_1&#45;&gt;)_5</title>
<path fill="none" stroke="black" d="M245,-359.7C245,-352.41 245,-343.73 245,-335.54"/>
<polygon fill="black" stroke="black" points="248.5,-335.62 245,-325.62 241.5,-335.62 248.5,-335.62"/>
</g>
<!-- {_6 -->
<g id="node7" class="node">
<title>{_6</title>
<ellipse fill="none" stroke="red" cx="317" cy="-306" rx="27" ry="18"/>
<text text-anchor="middle" x="317" y="-300.57" font-family="Times New Roman,serif" font-size="14.00" fill="red">{</text>
</g>
<!-- Entry Point_1&#45;&gt;{_6 -->
<g id="edge6" class="edge">
<title>Entry Point_1&#45;&gt;{_6</title>
<path fill="none" stroke="black" d="M261.7,-360.76C271.4,-351.33 283.76,-339.32 294.33,-329.04"/>
<polygon fill="black" stroke="black" points="296.53,-331.79 301.26,-322.3 291.65,-326.77 296.53,-331.79"/>
</g>
<!-- Declaration_7 -->
<g id="node8" class="node">
<title>Declaration_7</title>
<ellipse fill="none" stroke="black" cx="415" cy="-306" rx="52.56" ry="18"/>
<text text-anchor="middle" x="415" y="-300.57" font-family="Times New Roman,serif" font-size="14.00">Declaration</text>
</g>
<!-- Entry Point_1&#45;&gt;Declaration_7 -->
<g id="edge7" class="edge">
<title>Entry Point_1&#45;&gt;Declaration_7</title>
<path fill="none" stroke="black" d="M277.78,-363.5C304.59,-352.46 342.72,-336.76 371.98,-324.71"/>
<polygon fill="black" stroke="black" points="373.01,-328.08 380.92,-321.03 370.34,-321.6 373.01,-328.08"/>
</g>
<!-- }_17 -->
<g id="node18" class="node">
<title>}_17</title>
<ellipse fill="none" stroke="red" cx="513" cy="-306" rx="27" ry="18"/>
<text text-anchor="middle" x="513" y="-300.57" font-family="Times New Roman,serif" font-size="14.00" fill="red">}</text>
</g>
<!-- Entry Point_1&#45;&gt;}_17 -->
<g id="edge17" class="edge">
<title>Entry Point_1&#45;&gt;}_17</title>
<path fill="none" stroke="black" d="M291.61,-369.42C339.05,-361 414.33,-345.67 477,-324 478.55,-323.46 480.12,-322.88 481.7,-322.26"/>
<polygon fill="black" stroke="black" points="482.8,-325.6 490.61,-318.45 480.04,-319.17 482.8,-325.6"/>
</g>
<!-- int_8 -->
<g id="node9" class="node">
<title>int_8</title>
<ellipse fill="none" stroke="red" cx="257" cy="-234" rx="27" ry="18"/>
<text text-anchor="middle" x="257" y="-228.57" font-family="Times New Roman,serif" font-size="14.00" fill="red">int</text>
</g>
<!-- Declaration_7&#45;&gt;int_8 -->
<g id="edge8" class="edge">
<title>Declaration_7&#45;&gt;int_8</title>
<path fill="none" stroke="black" d="M382.77,-291.32C358.1,-280.78 323.29,-265.73 293,-252 291.69,-251.41 290.35,-250.8 289.01,-250.18"/>
<polygon fill="black" stroke="black" points="290.57,-247.04 280.02,-246 287.61,-253.39 290.57,-247.04"/>
</g>
<!-- Declarators_and_Initializers_9 -->
<g id="node10" class="node">
<title>Declarators_and_Initializers_9</title>
<ellipse fill="none" stroke="black" cx="415" cy="-234" rx="113.44" ry="18"/>
<text text-anchor="middle" x="415" y="-228.57" font-family="Times New Roman,serif" font-size="14.00">Declarators_and_Initializers</text>
</g>
<!-- Declaration_7&#45;&gt;Declarators_and_Initializers_9 -->
<g id="edge9" class="edge">
<title>Declaration_7&#45;&gt;Declarators_and_Initializers_9</title>
<path fill="none" stroke="black" d="M415,-287.7C415,-280.41 415,-271.73 415,-263.54"/>
<polygon fill="black" stroke="black" points="418.5,-263.62 415,-253.62 411.5,-263.62 418.5,-263.62"/>
</g>
<!-- ;_16 -->
<g id="node17" class="node">
<title>;_16</title>
<ellipse fill="none" stroke="red" cx="573" cy="-234" rx="27" ry="18"/>
<text text-anchor="middle" x="573" y="-228.57" font-family="Times New Roman,serif" font-size="14.00" fill="red">;</text>
</g>
<!-- Declaration_7&#45;&gt;;_16 -->
<g id="edge16" class="edge">
<title>Declaration_7&#45;&gt;;_16</title>
<path fill="none" stroke="black" d="M447.23,-291.32C471.9,-280.78 506.71,-265.73 537,-252 538.31,-251.41 539.65,-250.8 540.99,-250.18"/>
<polygon fill="black" stroke="black" points="542.39,-253.39 549.98,-246 539.43,-247.04 542.39,-253.39"/>
</g>
<!-- Declarator_10 -->
<g id="node11" class="node">
<title>Declarator_10</title>
<ellipse fill="none" stroke="black" cx="321" cy="-162" rx="49.07" ry="18"/>
<text text-anchor="middle" x="321" y="-156.57" font-family="Times New Roman,serif" font-size="14.00">Declarator</text>
</g>
<!-- Declarators_and_Initializers_9&#45;&gt;Declarator_10 -->
<g id="edge10" class="edge">
<title>Declarators_and_Initializers_9&#45;&gt;Declarator_10</title>
<path fill="none" stroke="black" d="M392.25,-216.05C379.8,-206.78 364.22,-195.19 350.81,-185.2"/>
<polygon fill="black" stroke="black" points="353.26,-182.66 343.15,-179.5 349.08,-188.28 353.26,-182.66"/>
</g>
<!-- =_12 -->
<g id="node13" class="node">
<title>=_12</title>
<ellipse fill="none" stroke="red" cx="415" cy="-162" rx="27" ry="18"/>
<text text-anchor="middle" x="415" y="-156.57" font-family="Times New Roman,serif" font-size="14.00" fill="red">=</text>
</g>
<!-- Declarators_and_Initializers_9&#45;&gt;=_12 -->
<g id="edge12" class="edge">
<title>Declarators_and_Initializers_9&#45;&gt;=_12</title>
<path fill="none" stroke="black" d="M415,-215.7C415,-208.41 415,-199.73 415,-191.54"/>
<polygon fill="black" stroke="black" points="418.5,-191.62 415,-181.62 411.5,-191.62 418.5,-191.62"/>
</g>
<!-- Initializer_13 -->
<g id="node14" class="node">
<title>Initializer_13</title>
<ellipse fill="none" stroke="black" cx="504" cy="-162" rx="43.58" ry="18"/>
<text text-anchor="middle" x="504" y="-156.57" font-family="Times New Roman,serif" font-size="14.00">Initializer</text>
</g>
<!-- Declarators_and_Initializers_9&#45;&gt;Initializer_13 -->
<g id="edge13" class="edge">
<title>Declarators_and_Initializers_9&#45;&gt;Initializer_13</title>
<path fill="none" stroke="black" d="M436.54,-216.05C448.3,-206.81 463,-195.25 475.68,-185.28"/>
<polygon fill="black" stroke="black" points="477.59,-188.23 483.29,-179.29 473.26,-182.72 477.59,-188.23"/>
</g>
<!-- x_11 -->
<g id="node12" class="node">
<title>x_11</title>
<ellipse fill="none" stroke="red" cx="321" cy="-90" rx="27" ry="18"/>
<text text-anchor="middle" x="321" y="-84.58" font-family="Times New Roman,serif" font-size="14.00" fill="red">x</text>
</g>
<!-- Declarator_10&#45;&gt;x_11 -->
<g id="edge11" class="edge">
<title>Declarator_10&#45;&gt;x_11</title>
<path fill="none" stroke="black" d="M321,-143.7C321,-136.41 321,-127.73 321,-119.54"/>
<polygon fill="black" stroke="black" points="324.5,-119.62 321,-109.62 317.5,-119.62 324.5,-119.62"/>
</g>
<!-- unary&#45;arithmetic&#45;expr_14 -->
<g id="node15" class="node">
<title>unary&#45;arithmetic&#45;expr_14</title>
<ellipse fill="none" stroke="black" cx="504" cy="-90" rx="89.49" ry="18"/>
<text text-anchor="middle" x="504" y="-84.58" font-family="Times New Roman,serif" font-size="14.00">unary&#45;arithmetic&#45;expr</text>
</g>
<!-- Initializer_13&#45;&gt;unary&#45;arithmetic&#45;expr_14 -->
<g id="edge14" class="edge">
<title>Initializer_13&#45;&gt;unary&#45;arithmetic&#45;expr_14</title>
<path fill="none" stroke="black" d="M504,-143.7C504,-136.41 504,-127.73 504,-119.54"/>
<polygon fill="black" stroke="black" points="507.5,-119.62 504,-109.62 500.5,-119.62 507.5,-119.62"/>
</g>
<!-- 33_15 -->
<g id="node16" class="node">
<title>33_15</title>
<ellipse fill="none" stroke="red" cx="504" cy="-18" rx="27" ry="18"/>
<text text-anchor="middle" x="504" y="-12.57" font-family="Times New Roman,serif" font-size="14.00" fill="red">33</text>
</g>
<!-- unary&#45;arithmetic&#45;expr_14&#45;&gt;33_15 -->
<g id="edge15" class="edge">
<title>unary&#45;arithmetic&#45;expr_14&#45;&gt;33_15</title>
<path fill="none" stroke="black" d="M504,-71.7C504,-64.41 504,-55.73 504,-47.54"/>
<polygon fill="black" stroke="black" points="507.5,-47.62 504,-37.62 500.5,-47.62 507.5,-47.62"/>
</g>
</g>
</svg>
